<?xml version="1.0" encoding="UTF-8"?>
<svg version="1.1" xmlns="http://www.w3.org/2000/svg" width="1200" height="1200">
<path d="M0 0 C3.34831031 0.0113819 6.69630199 0.00460493 10.04460144 -0.0068779 C33.19653338 -0.07411902 56.23945481 1.01864307 79.2097168 4.01074219 C79.85394592 4.0934436 80.49817505 4.17614502 81.16192627 4.26135254 C130.9797232 10.69709429 180.51279791 22.35285884 226.95825195 41.75292969 C229.38945748 42.76377696 231.827801 43.75761379 234.27270508 44.73486328 C244.63545965 48.88552472 254.69073065 53.54080502 264.70581055 58.46704102 C267.21196582 59.69934806 269.72219827 60.92301725 272.2331543 62.14550781 C284.70390966 68.23610952 297.15232185 74.42545786 309.0222168 81.63574219 C309.91783325 82.17811523 309.91783325 82.17811523 310.83154297 82.73144531 C316.41498085 86.12559732 321.9544691 89.59184741 327.48291016 93.07470703 C330.9663849 95.28523146 330.9663849 95.28523146 334.5847168 97.26074219 C334.5847168 97.92074219 334.5847168 98.58074219 334.5847168 99.26074219 C335.40842773 99.46828125 336.23213867 99.67582031 337.08081055 99.88964844 C341.5662243 101.64481034 344.88186335 104.24150806 348.6472168 107.19824219 C350.03223718 108.27205094 351.41891653 109.34372389 352.80737305 110.41308594 C353.45464355 110.91308105 354.10191406 111.41307617 354.76879883 111.92822266 C356.72724701 113.413408 356.72724701 113.413408 359.58081055 115.01464844 C360.24209961 115.42585938 360.90338867 115.83707031 361.5847168 116.26074219 C361.5847168 116.92074219 361.5847168 117.58074219 361.5847168 118.26074219 C362.26920898 118.48246094 362.95370117 118.70417969 363.65893555 118.93261719 C367.38548321 120.62424096 370.23974592 122.93721063 373.3972168 125.51074219 C374.63481981 126.50507653 375.87309768 127.49857152 377.11206055 128.49121094 C378.00320557 129.20736572 378.00320557 129.20736572 378.91235352 129.93798828 C381.05039606 131.62907069 383.24869249 133.22924792 385.4597168 134.82324219 C386.4909668 135.62761719 387.5222168 136.43199219 388.5847168 137.26074219 C388.5847168 137.92074219 388.5847168 138.58074219 388.5847168 139.26074219 C389.2447168 139.26074219 389.9047168 139.26074219 390.5847168 139.26074219 C390.5847168 139.92074219 390.5847168 140.58074219 390.5847168 141.26074219 C391.11323242 141.48117188 391.64174805 141.70160156 392.1862793 141.92871094 C395.45234525 143.74260099 398.15106285 146.13670253 400.9597168 148.57324219 C402.07151404 149.52788118 403.18349234 150.48230936 404.2956543 151.43652344 C404.83915527 151.90574219 405.38265625 152.37496094 405.94262695 152.85839844 C407.57202293 154.24990163 409.22405006 155.61000523 410.8815918 156.96777344 C413.5847168 159.26074219 413.5847168 159.26074219 415.4597168 161.63574219 C417.22292677 163.81382509 418.78108517 165.35182047 420.8972168 167.13574219 C425.32148746 170.919547 429.45319118 174.97612576 433.5847168 179.07324219 C434.61012573 180.07943604 434.61012573 180.07943604 435.65625 181.10595703 C436.29264404 181.74098145 436.92903809 182.37600586 437.5847168 183.03027344 C438.1622168 183.60366455 438.7397168 184.17705566 439.3347168 184.76782227 C440.5847168 186.26074219 440.5847168 186.26074219 440.5847168 188.26074219 C441.2447168 188.26074219 441.9047168 188.26074219 442.5847168 188.26074219 C443.9597168 189.62402344 443.9597168 189.62402344 445.5847168 191.57324219 C449.4666475 196.16097847 453.54110151 200.55088261 457.64331055 204.94042969 C459.5847168 207.26074219 459.5847168 207.26074219 459.5847168 209.26074219 C460.2447168 209.26074219 460.9047168 209.26074219 461.5847168 209.26074219 C465.5847168 213.73133042 465.5847168 213.73133042 465.5847168 216.26074219 C466.2447168 216.26074219 466.9047168 216.26074219 467.5847168 216.26074219 C468.95557783 218.01825633 470.31287461 219.78726215 471.61987305 221.59277344 C473.99226373 224.81413097 476.47349159 227.93950932 478.9597168 231.07324219 C492.5847168 248.34862615 492.5847168 248.34862615 492.5847168 251.26074219 C493.2447168 251.26074219 493.9047168 251.26074219 494.5847168 251.26074219 C496.06518555 253.31542969 496.06518555 253.31542969 497.7722168 256.13574219 C500.0500214 259.82428585 502.36677939 263.42841575 504.8972168 266.94824219 C534.3638634 308.73611933 557.3461681 356.73427379 573.3972168 405.19824219 C573.65384094 405.97054169 573.91046509 406.74284119 574.17486572 407.5385437 C586.53849548 444.85404415 595.55532251 482.7016226 600.7097168 521.69824219 C600.86843262 522.88643555 601.02714844 524.07462891 601.19067383 525.29882812 C601.69803145 529.28193221 602.15363141 533.26884169 602.5847168 537.26074219 C602.67372253 538.05750366 602.76272827 538.85426514 602.85443115 539.6751709 C604.99903428 559.46377391 604.98104078 579.2578154 604.9597168 599.13574219 C604.95982908 600.88064575 604.95995121 602.62554932 604.96008301 604.37045288 C604.94557139 630.18748204 604.21554929 655.66305408 600.5847168 681.26074219 C600.34446777 683.0510083 600.34446777 683.0510083 600.09936523 684.87744141 C599.12363661 692.04625012 597.92054028 699.1511548 596.5847168 706.26074219 C596.27993408 707.94176025 596.27993408 707.94176025 595.96899414 709.65673828 C588.37617806 751.28396967 576.02447442 791.63158254 559.9597168 830.76074219 C559.40670898 832.12585938 559.40670898 832.12585938 558.8425293 833.51855469 C556.9100823 838.24080192 554.83912188 842.81331172 552.50439453 847.34863281 C551.5709853 849.28929145 550.82156068 851.23383893 550.09643555 853.26074219 C548.56936444 857.48101144 546.54880546 861.32971396 544.3972168 865.26074219 C541.33327695 870.94233197 538.36868009 876.6547689 535.5222168 882.44824219 C529.96064836 893.67843788 523.66046769 904.35434823 516.76049805 914.81152344 C515.14385897 917.30527521 513.70602512 919.85404419 512.29956055 922.47167969 C509.20375083 928.1107521 505.53434696 933.31797707 501.8347168 938.57324219 C501.1217041 939.59144043 500.40869141 940.60963867 499.67407227 941.65869141 C494.77482534 948.63099704 489.79306627 955.51534221 484.5847168 962.26074219 C483.74582016 963.35552236 482.90729695 964.45058875 482.0690918 965.54589844 C480.36907157 967.76521028 478.66312151 969.97974209 476.9519043 972.19042969 C475.44511522 974.14477988 473.94906698 976.10749342 472.4675293 978.08105469 C471.84620117 978.90347656 471.22487305 979.72589844 470.5847168 980.57324219 C470.0484668 981.29125 469.5122168 982.00925781 468.9597168 982.74902344 C468.5059668 983.24789062 468.0522168 983.74675781 467.5847168 984.26074219 C466.9247168 984.26074219 466.2647168 984.26074219 465.5847168 984.26074219 C465.34108398 984.81117188 465.09745117 985.36160156 464.84643555 985.92871094 C461.05585051 992.9348387 455.05884197 999.00996406 449.34204102 1004.50244141 C447.70824049 1006.13714985 446.23049495 1007.8200463 444.74487305 1009.58886719 C439.62444879 1015.47911236 434.0584382 1020.93610929 428.53320312 1026.44262695 C426.65143406 1028.31903694 424.77506942 1030.20073188 422.89916992 1032.08300781 C416.96252845 1038.02299315 411.0009872 1043.83457119 404.5847168 1049.26074219 C402.00902711 1051.58028594 399.44413797 1053.91107831 396.8815918 1056.24511719 C391.16611215 1061.26074219 391.16611215 1061.26074219 388.5847168 1061.26074219 C388.5847168 1061.92074219 388.5847168 1062.58074219 388.5847168 1063.26074219 C386.55888701 1065.0101844 384.52541732 1066.6437652 382.3972168 1068.26074219 C381.76299805 1068.74986084 381.1287793 1069.23897949 380.4753418 1069.74291992 C379.15651552 1070.75907819 377.83568327 1071.7726379 376.51293945 1072.78369141 C374.75199431 1074.13260482 373.00038727 1075.49239688 371.25268555 1076.85839844 C350.79407501 1092.81397634 329.20268164 1107.54082958 306.5847168 1120.26074219 C305.87186523 1120.66454102 305.15901367 1121.06833984 304.42456055 1121.484375 C292.93789834 1127.98234132 281.30358279 1134.19277389 269.5847168 1140.26074219 C268.42584961 1140.86144531 267.26698242 1141.46214844 266.07299805 1142.08105469 C260.87979425 1144.7275273 255.67266117 1147.04801164 250.25439453 1149.18994141 C245.08469733 1151.26349348 239.98802579 1153.51017738 234.87963867 1155.72949219 C222.30441229 1161.15819369 209.71130037 1166.06256954 196.6472168 1170.19824219 C195.2889803 1170.63150784 193.93074464 1171.06477612 192.57250977 1171.49804688 C152.8566046 1184.12193017 112.49434787 1193.7894212 70.96447754 1198.01824951 C69.37823271 1198.17988456 67.7923675 1198.34528955 66.20690918 1198.51446533 C47.07085192 1200.50455932 27.99886585 1200.57143542 8.7824707 1200.52148438 C4.34427436 1200.51007303 -0.09368259 1200.51687832 -4.53187084 1200.52836227 C-22.91949177 1200.56880201 -41.12953376 1200.4356154 -59.4152832 1198.26074219 C-60.76154773 1198.11246508 -62.10789686 1197.9649533 -63.4543457 1197.81835938 C-66.92695195 1197.42103813 -70.38925811 1196.98027509 -73.8527832 1196.51074219 C-75.09664795 1196.34227783 -76.3405127 1196.17381348 -77.62207031 1196.00024414 C-109.26709016 1191.56476499 -140.43150378 1184.68450011 -170.90356445 1175.04101562 C-173.94957732 1174.09476202 -177.01261021 1173.22002195 -180.08178711 1172.35253906 C-212.09805035 1163.25862975 -243.57287531 1149.49478616 -272.80639648 1133.66894531 C-275.65780115 1132.12983787 -278.51858862 1130.60904514 -281.38012695 1129.08886719 C-292.34288929 1123.24062192 -303.08488957 1117.2130585 -313.5222168 1110.47119141 C-315.5216918 1109.19270326 -317.53765458 1107.94441971 -319.55981445 1106.70214844 C-326.71225534 1102.30333895 -333.65663542 1097.80160011 -340.3762207 1092.75683594 C-342.33874981 1091.22878305 -342.33874981 1091.22878305 -344.4152832 1090.26074219 C-344.4152832 1089.60074219 -344.4152832 1088.94074219 -344.4152832 1088.26074219 C-345.12426758 1088.01453125 -345.83325195 1087.76832031 -346.5637207 1087.51464844 C-349.78521759 1086.09807241 -352.24457522 1084.33458508 -355.0402832 1082.19824219 C-355.56025879 1081.80193604 -356.08023438 1081.40562988 -356.6159668 1080.99731445 C-361.06763294 1077.58203287 -365.4144572 1074.04172503 -369.73950195 1070.46777344 C-377.06840497 1064.36643509 -377.06840497 1064.36643509 -384.70043945 1058.65917969 C-385.54928711 1057.96695312 -385.54928711 1057.96695312 -386.4152832 1057.26074219 C-386.4152832 1056.60074219 -386.4152832 1055.94074219 -386.4152832 1055.26074219 C-386.95282227 1055.04160156 -387.49036133 1054.82246094 -388.04418945 1054.59667969 C-391.22826989 1052.80268379 -393.71920228 1050.38452059 -396.3527832 1047.88574219 C-397.38127894 1046.9180506 -398.4112103 1045.9518824 -399.44262695 1044.98730469 C-399.93746582 1044.52356445 -400.43230469 1044.05982422 -400.94213867 1043.58203125 C-402.33545727 1042.33233946 -403.81366855 1041.17922299 -405.29418945 1040.03417969 C-406.34413086 1039.15632813 -406.34413086 1039.15632813 -407.4152832 1038.26074219 C-407.4152832 1037.60074219 -407.4152832 1036.94074219 -407.4152832 1036.26074219 C-408.26110962 1035.90387329 -408.26110962 1035.90387329 -409.12402344 1035.53979492 C-411.9239369 1033.97679581 -413.8226189 1032.07829252 -416.07543945 1029.79589844 C-417.38931641 1028.47235352 -417.38931641 1028.47235352 -418.72973633 1027.12207031 C-420.09001953 1025.73665039 -420.09001953 1025.73665039 -421.4777832 1024.32324219 C-422.38850586 1023.40349609 -423.29922852 1022.48375 -424.23754883 1021.53613281 C-425.92806032 1019.82818052 -427.61651197 1018.11818526 -429.30224609 1016.40551758 C-430.57657964 1015.11204326 -431.87017088 1013.83662467 -433.19824219 1012.59838867 C-434.4152832 1011.26074219 -434.4152832 1011.26074219 -434.4152832 1009.26074219 C-435.0752832 1009.26074219 -435.7352832 1009.26074219 -436.4152832 1009.26074219 C-437.75512695 1007.96777344 -437.75512695 1007.96777344 -439.3527832 1006.07324219 C-439.9612207 1005.35523438 -440.5696582 1004.63722656 -441.1965332 1003.89746094 C-441.9287207 1003.02734375 -442.6609082 1002.15722656 -443.4152832 1001.26074219 C-444.38285305 1000.14123153 -445.35168113 999.02280754 -446.3215332 997.90527344 C-447.33228477 996.73238488 -448.34270141 995.5592076 -449.3527832 994.38574219 C-449.84963623 993.8144458 -450.34648926 993.24314941 -450.85839844 992.65454102 C-454.4152832 988.48836643 -454.4152832 988.48836643 -454.4152832 986.26074219 C-455.0752832 986.26074219 -455.7352832 986.26074219 -456.4152832 986.26074219 C-459.64189106 982.79074796 -462.48713676 978.98421449 -465.4152832 975.26074219 C-466.09179932 974.41116943 -466.09179932 974.41116943 -466.78198242 973.54443359 C-468.14625527 971.83052055 -469.50097429 970.10949705 -470.8527832 968.38574219 C-471.2775293 967.85118408 -471.70227539 967.31662598 -472.13989258 966.76586914 C-474.49293058 963.73001296 -476.18530712 960.90362216 -477.4152832 957.26074219 C-478.0752832 957.26074219 -478.7352832 957.26074219 -479.4152832 957.26074219 C-480.8226403 955.46211555 -482.13901149 953.59213825 -483.4152832 951.69824219 C-483.81046143 951.11469971 -484.20563965 950.53115723 -484.61279297 949.92993164 C-485.45659092 948.68104442 -486.29706328 947.42990506 -487.13452148 946.17675781 C-488.37592597 944.31962049 -489.62689871 942.46928962 -490.88012695 940.62011719 C-499.47475524 927.88903678 -507.54251105 914.83862262 -515.39575195 901.63964844 C-516.59181639 899.63849614 -517.79857952 897.64357015 -519.02856445 895.66308594 C-523.14839317 889.01139483 -526.62501143 882.07908851 -530.05151367 875.0546875 C-531.37310097 872.34716064 -532.70179991 869.64318332 -534.03088379 866.93933105 C-541.25398126 852.22884252 -548.43354122 837.53068065 -554.4152832 822.26074219 C-554.83777344 821.18518066 -554.83777344 821.18518066 -555.26879883 820.08789062 C-558.06403983 812.91986456 -560.66604604 805.74352851 -562.7746582 798.33886719 C-563.53215223 795.88163046 -564.57178496 793.58084849 -565.61450195 791.23339844 C-567.58747568 786.37314609 -568.95193536 781.2922382 -570.4152832 776.26074219 C-570.66826172 775.39626465 -570.92124023 774.53178711 -571.18188477 773.64111328 C-587.31242456 718.22186107 -595.86600429 661.37079101 -595.67602539 603.62451172 C-595.66528728 599.76221027 -595.6760142 595.90037368 -595.6887207 592.03808594 C-595.70186499 569.62485812 -594.4383944 547.31880284 -591.6652832 525.07324219 C-591.54222809 524.07295486 -591.54222809 524.07295486 -591.41668701 523.05245972 C-586.48275329 483.29399853 -576.96900385 444.74631372 -564.3527832 406.76074219 C-564.1032489 406.00819153 -563.8537146 405.25564087 -563.59661865 404.48028564 C-560.92311428 396.43955036 -558.16160482 388.439816 -555.19262695 380.50292969 C-554.82765358 379.52700867 -554.82765358 379.52700867 -554.45530701 378.53137207 C-552.75035567 374.02659803 -550.86315614 369.63927652 -548.81762695 365.28027344 C-547.71805673 362.91267517 -546.65247331 360.53883087 -545.60668945 358.14746094 C-541.17605952 348.01857915 -536.4707242 338.09145305 -531.4152832 328.26074219 C-530.94509766 327.33970703 -530.47491211 326.41867187 -529.99047852 325.46972656 C-528.43056939 322.41734239 -526.8616892 319.36972184 -525.2902832 316.32324219 C-524.79947266 315.36393799 -524.30866211 314.40463379 -523.80297852 313.41625977 C-521.055427 308.12496875 -518.09751182 303.14492198 -514.72729492 298.2277832 C-513.11540217 295.81114385 -511.79418296 293.31667992 -510.5402832 290.69824219 C-510.13036133 289.85132813 -509.72043945 289.00441406 -509.2980957 288.13183594 C-509.00676758 287.514375 -508.71543945 286.89691406 -508.4152832 286.26074219 C-507.7552832 286.26074219 -507.0952832 286.26074219 -506.4152832 286.26074219 C-506.17680664 285.41253906 -505.93833008 284.56433594 -505.69262695 283.69042969 C-504.26586191 279.85954372 -502.28755758 276.72054588 -499.9777832 273.38574219 C-499.54401367 272.74950928 -499.11024414 272.11327637 -498.66333008 271.45776367 C-497.73729815 270.10124579 -496.80834023 268.74672147 -495.87670898 267.39404297 C-494.36131853 265.18196783 -492.86912289 262.95549938 -491.38012695 260.72558594 C-490.3922633 259.25785687 -489.4039925 257.79040174 -488.4152832 256.32324219 C-487.71254272 255.2667749 -487.71254272 255.2667749 -486.99560547 254.18896484 C-485.85352408 252.5101115 -484.64071506 250.87975893 -483.4152832 249.26074219 C-482.7552832 249.26074219 -482.0952832 249.26074219 -481.4152832 249.26074219 C-481.1884082 248.5865625 -480.9615332 247.91238281 -480.7277832 247.21777344 C-479.0515939 243.44135885 -476.82423779 240.28980634 -474.4152832 236.94824219 C-473.96411133 236.30306641 -473.51293945 235.65789062 -473.0480957 234.99316406 C-471.89107383 233.37572964 -470.65861743 231.81280975 -469.4152832 230.26074219 C-468.7552832 230.26074219 -468.0952832 230.26074219 -467.4152832 230.26074219 C-467.05176758 229.17212891 -467.05176758 229.17212891 -466.6809082 228.06152344 C-465.25204707 224.89950667 -463.55017239 222.95886533 -461.1652832 220.44824219 C-457.66542628 216.6891366 -454.53269202 212.87729165 -451.60668945 208.65917969 C-451.01694336 207.96695313 -451.01694336 207.96695313 -450.4152832 207.26074219 C-449.7552832 207.26074219 -449.0952832 207.26074219 -448.4152832 207.26074219 C-448.20774414 206.73480469 -448.00020508 206.20886719 -447.78637695 205.66699219 C-445.83217772 202.23740038 -443.19148629 199.60674233 -440.4777832 196.76074219 C-439.40442814 195.62697073 -438.33276532 194.4915944 -437.26293945 193.35449219 C-436.76294434 192.82339844 -436.26294922 192.29230469 -435.74780273 191.74511719 C-434.27959255 190.16010671 -434.27959255 190.16010671 -432.66137695 187.85449219 C-432.25016602 187.32855469 -431.83895508 186.80261719 -431.4152832 186.26074219 C-430.7552832 186.26074219 -430.0952832 186.26074219 -429.4152832 186.26074219 C-429.4152832 185.60074219 -429.4152832 184.94074219 -429.4152832 184.26074219 C-428.7552832 184.26074219 -428.0952832 184.26074219 -427.4152832 184.26074219 C-427.4152832 183.60074219 -427.4152832 182.94074219 -427.4152832 182.26074219 C-426.7552832 182.26074219 -426.0952832 182.26074219 -425.4152832 182.26074219 C-425.4152832 181.60074219 -425.4152832 180.94074219 -425.4152832 180.26074219 C-424.7552832 180.26074219 -424.0952832 180.26074219 -423.4152832 180.26074219 C-423.4152832 179.60074219 -423.4152832 178.94074219 -423.4152832 178.26074219 C-422.7552832 178.26074219 -422.0952832 178.26074219 -421.4152832 178.26074219 C-421.4152832 177.60074219 -421.4152832 176.94074219 -421.4152832 176.26074219 C-420.7552832 176.26074219 -420.0952832 176.26074219 -419.4152832 176.26074219 C-419.4152832 175.60074219 -419.4152832 174.94074219 -419.4152832 174.26074219 C-418.7552832 174.26074219 -418.0952832 174.26074219 -417.4152832 174.26074219 C-417.4152832 173.60074219 -417.4152832 172.94074219 -417.4152832 172.26074219 C-416.7552832 172.26074219 -416.0952832 172.26074219 -415.4152832 172.26074219 C-415.4152832 171.60074219 -415.4152832 170.94074219 -415.4152832 170.26074219 C-414.7552832 170.26074219 -414.0952832 170.26074219 -413.4152832 170.26074219 C-413.4152832 169.60074219 -413.4152832 168.94074219 -413.4152832 168.26074219 C-412.7552832 168.26074219 -412.0952832 168.26074219 -411.4152832 168.26074219 C-411.4152832 167.60074219 -411.4152832 166.94074219 -411.4152832 166.26074219 C-410.7552832 166.26074219 -410.0952832 166.26074219 -409.4152832 166.26074219 C-409.4152832 165.60074219 -409.4152832 164.94074219 -409.4152832 164.26074219 C-408.05200195 162.88574219 -408.05200195 162.88574219 -406.1027832 161.26074219 C-401.51504692 157.37881149 -397.12514278 153.30435747 -392.7355957 149.20214844 C-390.4152832 147.26074219 -390.4152832 147.26074219 -388.4152832 147.26074219 C-388.4152832 146.60074219 -388.4152832 145.94074219 -388.4152832 145.26074219 C-386.26284537 143.43370757 -384.1016615 141.71156261 -381.8527832 140.01074219 C-380.56401693 139.02116537 -379.27624551 138.03029147 -377.98950195 137.03808594 C-377.36994629 136.56097168 -376.75039063 136.08385742 -376.11206055 135.59228516 C-374.0670218 133.98744467 -372.10774369 132.30033392 -370.1652832 130.57324219 C-367.4152832 128.26074219 -367.4152832 128.26074219 -365.4152832 128.26074219 C-365.4152832 127.60074219 -365.4152832 126.94074219 -365.4152832 126.26074219 C-363.88647461 124.93212891 -363.88647461 124.93212891 -361.7668457 123.44042969 C-361.00887695 122.90546875 -360.2509082 122.37050781 -359.4699707 121.81933594 C-358.66817383 121.26375 -357.86637695 120.70816406 -357.0402832 120.13574219 C-356.2462207 119.57242188 -355.4521582 119.00910156 -354.6340332 118.42871094 C-348.67979213 114.26074219 -348.67979213 114.26074219 -346.4152832 114.26074219 C-346.4152832 113.60074219 -346.4152832 112.94074219 -346.4152832 112.26074219 C-344.13746623 110.52248886 -341.85813848 108.91106172 -339.4777832 107.32324219 C-338.39231201 106.59016846 -338.39231201 106.59016846 -337.28491211 105.84228516 C-335.00096152 104.30602424 -332.70923746 102.78201676 -330.4152832 101.26074219 C-329.73159668 100.8045752 -329.04791016 100.3484082 -328.34350586 99.87841797 C-317.07742102 92.38143052 -305.48655633 85.47141416 -293.79858398 78.65576172 C-291.82896669 77.50288391 -289.86717637 76.33916466 -287.91137695 75.16308594 C-280.70943057 70.86151524 -273.2922683 67.06909842 -265.75415039 63.40136719 C-264.14051061 62.61442303 -262.52932077 61.82244218 -260.92016602 61.02636719 C-244.7169966 53.01228563 -228.1922864 45.96736489 -211.4152832 39.26074219 C-210.59415039 38.93203125 -209.77301758 38.60332031 -208.92700195 38.26464844 C-197.29500642 33.65012736 -185.36417545 29.95515761 -173.4152832 26.26074219 C-172.57449219 25.9976123 -171.73370117 25.73448242 -170.86743164 25.46337891 C-138.72190743 15.41391471 -105.79334899 8.65495893 -72.4152832 4.26074219 C-71.59737305 4.1527832 -70.77946289 4.04482422 -69.93676758 3.93359375 C-46.70824377 0.94706926 -23.40476278 -0.08028716 0 0 Z " fill="#FEC700" transform="translate(595.415283203125,-0.2607421875)"/>
<path d="M0 0 C18.45955012 14.43871247 32.60214252 35.10710534 36.40429688 58.57470703 C39.54321948 86.66789718 34.47784747 112.39089016 17.06445312 134.93408203 C4.78261823 149.73704688 -8.96086081 159.8718164 -27.18554688 165.93408203 C-28.3225 166.34658203 -29.45945312 166.75908203 -30.63085938 167.18408203 C-54.1819553 174.50882893 -80.52631111 171.17961978 -102.21289062 160.12548828 C-123.06797937 148.94405559 -137.20254453 130.41416277 -146.18554688 108.93408203 C-146.44988525 108.30469727 -146.71422363 107.6753125 -146.98657227 107.02685547 C-155.63985481 85.39766642 -153.66696202 59.27134788 -144.70898438 38.07080078 C-138.86865981 26.04572225 -131.69532214 16.31052711 -122.18554688 6.93408203 C-121.44691406 6.18513672 -120.70828125 5.43619141 -119.94726562 4.66455078 C-87.43898385 -26.37443013 -35.06982131 -26.07886191 0 0 Z " fill="#020000" transform="translate(731.185546875,198.06591796875)"/>
<path d="M0 0 C1.25963011 0.00138269 1.25963011 0.00138269 2.5447073 0.00279331 C3.50529552 0.00141865 4.46588375 0.00004398 5.45558071 -0.00137234 C6.51796963 0.00222294 7.58035854 0.00581821 8.67494106 0.00952244 C10.34302067 0.0093034 10.34302067 0.0093034 12.04479885 0.00907993 C15.74046143 0.00977962 19.43607434 0.01757463 23.13172817 0.02539158 C25.68620686 0.02725556 28.24068589 0.02867956 30.79516506 0.0296793 C36.84418902 0.03311439 42.89319147 0.04100518 48.9422068 0.05102879 C55.82722346 0.062191 62.71224096 0.06770065 69.59726441 0.07272422 C83.76371022 0.08318783 97.93014009 0.1007866 112.09657192 0.12304783 C111.78034702 1.71859393 111.46332341 3.31398175 111.14596462 4.90930271 C110.8812799 6.24197556 110.8812799 6.24197556 110.61124802 7.60157108 C109.99550895 10.61817076 109.29090917 13.60462614 108.54579067 16.59179783 C108.26211636 17.73052341 107.97844204 18.869249 107.68617153 20.04248142 C107.38847866 21.22406834 107.09078579 22.40565525 106.78407192 23.62304783 C106.47284389 24.86264256 106.16161587 26.10223728 105.84095669 27.37939548 C103.60108911 36.24767821 101.2279544 45.06765925 98.73231411 53.86670017 C93.1918088 73.53081309 88.05126836 93.30426208 83.09657192 113.12304783 C120.38657192 113.12304783 157.67657192 113.12304783 196.09657192 113.12304783 C193.47991622 123.58967064 190.8527926 134.05129728 188.15907192 144.49804783 C187.98504848 145.17302311 187.81102505 145.84799839 187.63172817 146.54342747 C185.50595748 154.77994035 183.34379281 163.0028421 181.03040981 171.1889658 C178.97607945 178.4798412 177.04073486 185.8022293 175.09657192 193.12304783 C172.81279085 201.71427531 170.52652811 210.30442997 168.15907192 218.87304783 C167.86033169 219.96166111 167.86033169 219.96166111 167.5555563 221.07226658 C166.21778774 225.88061619 166.21778774 225.88061619 165.09657192 228.12304783 C127.47657192 228.12304783 89.85657192 228.12304783 51.09657192 228.12304783 C52.45012832 220.67848765 53.91238697 213.47243305 55.84657192 206.18554783 C56.10897671 205.18612156 56.37138149 204.18669529 56.64173794 203.15698338 C58.310294 196.87363243 60.11681343 190.6469005 62.03407192 184.43554783 C64.89480923 175.16154215 67.23645052 165.78045308 69.55457973 156.35815525 C71.88756302 146.88933128 74.40970527 137.49741539 77.09657192 128.12304783 C78.41657192 123.50304783 79.73657192 118.88304783 81.09657192 114.12304783 C43.80657192 114.12304783 6.51657192 114.12304783 -31.90342808 114.12304783 C-31.18489429 109.09331131 -30.30798466 104.40577832 -29.00499058 99.53320408 C-28.81438557 98.80857471 -28.62378056 98.08394535 -28.42739964 97.33735752 C-27.79854012 94.9523072 -27.1636353 92.56891474 -26.52842808 90.18554783 C-26.08191788 88.49824757 -25.63555013 86.8109096 -25.18931675 85.12353611 C-21.72240514 72.04958938 -18.13308937 59.01021238 -14.51634312 45.97705173 C-11.12271288 33.73968677 -7.90015223 21.47546165 -4.92027378 9.13037205 C-4.53681797 7.55086765 -4.53681797 7.55086765 -4.14561558 5.93945408 C-3.92760288 5.02623386 -3.70959019 4.11301365 -3.48497105 3.17212009 C-2.63300561 0.17021164 -2.63300561 0.17021164 0 0 Z " fill="#030000" transform="translate(665.9034280776978,676.8769521713257)"/>
<path d="M0 0 C37.62 0 75.24 0 114 0 C112.82707021 5.86464894 111.69305054 11.44277196 110.12109375 17.1640625 C109.76868988 18.45977656 109.41698588 19.75568114 109.06591797 21.05175781 C108.80013947 22.03070007 108.80013947 22.03070007 108.5289917 23.02941895 C107.67015362 26.22873199 106.85343552 29.43854921 106.03515625 32.6484375 C105.71264893 33.91187988 105.3901416 35.17532227 105.05786133 36.47705078 C104.89524811 37.11419006 104.73263489 37.75132935 104.56509399 38.40777588 C102.11186801 48.01005005 99.6187564 57.58114398 96.72070312 67.06079102 C94.87708945 73.18677164 93.42365257 79.3960815 92.05004883 85.64306641 C89.86207404 95.2889347 86.86809395 104.43968684 84 114 C46.38 114 8.76 114 -30 114 C-30.99 117.96 -31.98 121.92 -33 126 C-34.11414933 130.38938771 -35.24004708 134.77569747 -36.36962891 139.16113281 C-36.86903559 141.10182237 -37.36617226 143.04309562 -37.86328125 144.984375 C-40.04674721 153.48032915 -42.35403559 161.93700696 -44.71484375 170.38525391 C-46.65712205 177.3423797 -48.54452713 184.31439482 -50.42993164 191.28710938 C-51.06437545 193.63193142 -51.70111577 195.97612257 -52.33789062 198.3203125 C-52.757953 199.87235781 -53.17787948 201.42443992 -53.59765625 202.9765625 C-53.78006363 203.64684479 -53.96247101 204.31712708 -54.15040588 205.00772095 C-56.21044105 212.64692631 -58.07985027 220.3194011 -60 228 C-97.95 228 -135.9 228 -175 228 C-172.47801739 217.2815739 -169.91702023 206.62672877 -167.0625 196 C-166.74087891 194.78828125 -166.41925781 193.5765625 -166.08789062 192.328125 C-164.32971496 185.75317223 -162.48172983 179.21898841 -160.53125 172.69921875 C-157.88071237 163.80553202 -155.63793611 154.82632313 -153.4375 145.8125 C-145.86287444 114.86287444 -145.86287444 114.86287444 -144 113 C-142.51983606 112.90431424 -141.03511727 112.87811732 -139.55186462 112.87974548 C-138.5912764 112.87837082 -137.63068817 112.87699615 -136.64099121 112.87557983 C-135.57860229 112.87917511 -134.51621338 112.88277039 -133.42163086 112.88647461 C-131.75355125 112.88625557 -131.75355125 112.88625557 -130.05177307 112.8860321 C-126.35611049 112.88673179 -122.66049759 112.8945268 -118.96484375 112.90234375 C-116.41036507 112.90420773 -113.85588603 112.90563173 -111.30140686 112.90663147 C-105.2523829 112.91006656 -99.20338045 112.91795736 -93.15436512 112.92798096 C-86.26934846 112.93914317 -79.38433096 112.94465282 -72.49930751 112.94967639 C-58.3328617 112.96014 -44.16643183 112.97773877 -30 113 C-29.60929321 111.2053833 -29.60929321 111.2053833 -29.21069336 109.37451172 C-28.85803175 107.76787695 -28.50524164 106.16127038 -28.15234375 104.5546875 C-27.98198608 103.77053467 -27.81162842 102.98638184 -27.6361084 102.1784668 C-26.44579768 96.77553948 -25.07740687 91.44572327 -23.5625 86.125 C-23.21070679 84.88194092 -23.21070679 84.88194092 -22.85180664 83.61376953 C-22.66481201 82.96005371 -22.47781738 82.30633789 -22.28515625 81.6328125 C-20.9192833 76.78028738 -19.70303122 71.89502759 -18.5 67 C-16.80763158 60.13628769 -15.0128313 53.31459217 -13.09033203 46.51196289 C-11.68705514 41.52583989 -10.33584188 36.52721643 -9.01171875 31.51953125 C-8.83632065 30.85705383 -8.66092255 30.19457642 -8.48020935 29.51202393 C-7.77109821 26.83217651 -7.06235522 24.15225136 -6.35946655 21.47076416 C-5.86453956 19.58271708 -5.36590258 17.69564377 -4.8671875 15.80859375 C-4.57956543 14.71345459 -4.29194336 13.61831543 -3.99560547 12.48999023 C-2.79645964 8.28651069 -1.38228763 4.1468629 0 0 Z " fill="#030000" transform="translate(380,677)"/>
<path d="M0 0 C37.95 0 75.9 0 115 0 C111.675 15.51666667 111.675 15.51666667 109.875 21.25 C107.28616623 29.75544008 105.01384325 38.34143313 102.75 46.9375 C102.55915833 47.66108704 102.36831665 48.38467407 102.17169189 49.13018799 C100.16982649 56.72185984 98.17829874 64.31622136 96.19232178 71.9120636 C95.40325251 74.9271136 94.6113214 77.94140808 93.81896973 80.95559692 C93.1176256 83.62972534 92.42231573 86.3054095 91.72869873 88.98155212 C89.39219131 97.77716275 86.7259467 106.27697057 84 115 C46.05 115 8.1 115 -31 115 C-28.44793465 104.15372225 -25.8610617 93.34382177 -23.0625 82.5625 C-22.88847656 81.89035461 -22.71445312 81.21820923 -22.53515625 80.5256958 C-20.02842496 70.84727721 -17.44139664 61.19591681 -14.72314453 51.57470703 C-13.28964281 46.47082143 -11.88201439 41.35973945 -10.47198486 36.24932861 C-9.94322417 34.33324284 -9.41375462 32.41735273 -8.88427734 30.50146484 C-6.79586083 22.93182891 -4.74513408 15.35491382 -2.7890625 7.75 C-2 5 -2 5 0 0 Z " fill="#030100" transform="translate(736,395)"/>
<path d="M0 0 C14.27307093 -0.09343942 28.54609443 -0.16371123 42.81940842 -0.20724869 C49.44677065 -0.22814226 56.07392773 -0.25649282 62.70117188 -0.30175781 C69.09429191 -0.3451515 75.48721436 -0.36912377 81.88047028 -0.37950897 C84.32218793 -0.38691192 86.76389451 -0.40136773 89.20552826 -0.42292023 C92.62000582 -0.45186718 96.03366209 -0.45595952 99.44824219 -0.45410156 C100.46244232 -0.46848267 101.47664246 -0.48286377 102.52157593 -0.49768066 C109.36153845 -0.457285 109.36153845 -0.457285 112.6678772 1.91081238 C114 4 114 4 113.86572266 5.88110352 C113.58003418 6.58033936 113.2943457 7.2795752 113 8 C112.71817871 8.90999756 112.43635742 9.81999512 112.14599609 10.75756836 C111.65220459 12.31423218 111.65220459 12.31423218 111.1484375 13.90234375 C109.03524774 20.73067151 107.3002573 27.61602612 105.625 34.5625 C103.61152532 42.77626687 101.51751095 50.92584363 99 59 C96.17558839 68.07203664 93.86390324 77.24835548 91.62304688 86.48046875 C89.2863757 96.06250164 86.64515382 105.47744624 84 115 C46.05 115 8.1 115 -31 115 C-26.29554795 95.00607877 -26.29554795 95.00607877 -24.0625 86.5 C-23.80581543 85.51845947 -23.54913086 84.53691895 -23.28466797 83.52563477 C-21.81913069 77.96793627 -20.281507 72.44106325 -18.625 66.9375 C-16.27431138 59.12708493 -14.15832402 51.25714211 -12.0625 43.375 C-11.89113525 42.73087158 -11.71977051 42.08674316 -11.54321289 41.4230957 C-9.74700362 34.66423374 -7.96966648 27.90066949 -6.22265625 21.12890625 C-5.95122803 20.07848145 -5.6797998 19.02805664 -5.40014648 17.94580078 C-4.89768983 15.9957942 -4.3983104 14.04499109 -3.90258789 12.09326172 C-3.67949951 11.22588379 -3.45641113 10.35850586 -3.2265625 9.46484375 C-3.03658691 8.718396 -2.84661133 7.97194824 -2.65087891 7.20288086 C-1.9200942 4.72956113 -0.96990361 2.38838186 0 0 Z " fill="#030100" transform="translate(308,508)"/>
<path d="M0 0 C1.25963011 0.00138269 1.25963011 0.00138269 2.5447073 0.00279331 C3.50529552 0.00141865 4.46588375 0.00004398 5.45558071 -0.00137234 C6.51796963 0.00222294 7.58035854 0.00581821 8.67494106 0.00952244 C10.34302067 0.0093034 10.34302067 0.0093034 12.04479885 0.00907993 C15.74046143 0.00977962 19.43607434 0.01757463 23.13172817 0.02539158 C25.68620686 0.02725556 28.24068589 0.02867956 30.79516506 0.0296793 C36.84418902 0.03311439 42.89319147 0.04100518 48.9422068 0.05102879 C55.82722346 0.062191 62.71224096 0.06770065 69.59726441 0.07272422 C83.76371022 0.08318783 97.93014009 0.1007866 112.09657192 0.12304783 C111.78717119 1.68626399 111.47684773 3.24929753 111.166152 4.81225681 C110.9934428 5.68269123 110.8207336 6.55312565 110.64279079 7.44993687 C108.3130764 18.8512 105.48914988 30.14030021 102.10633755 41.27270603 C100.15500299 47.76149016 98.46428994 54.30949076 96.78407192 60.87304783 C94.22955966 70.8370609 91.5840288 80.77058937 88.84657192 90.68554783 C88.35290127 92.47653904 88.35290127 92.47653904 87.84925747 94.30371189 C86.01004938 100.93895457 84.07606425 107.52474005 82.09657192 114.12304783 C44.47657192 114.12304783 6.85657192 114.12304783 -31.90342808 114.12304783 C-31.30264241 109.91754815 -30.77500817 106.23613109 -29.70420933 102.21679783 C-29.46758579 101.31977146 -29.23096226 100.42274509 -28.98716831 99.49853611 C-28.6054044 98.07516941 -28.6054044 98.07516941 -28.21592808 96.62304783 C-27.67145196 94.56841472 -27.12718719 92.51372559 -26.58311558 90.45898533 C-26.30435581 89.41065525 -26.02559605 88.36232517 -25.73838902 87.28222752 C-24.93017347 84.22424239 -24.13639879 81.16294857 -23.34874058 78.09961033 C-21.1791756 69.67120034 -18.99474851 61.26407282 -16.46592808 52.93554783 C-13.44735025 42.97424101 -11.04638312 32.85322698 -8.54795933 22.75195408 C-7.24167749 17.4707471 -5.91665147 12.19583541 -4.52842808 6.93554783 C-4.2319437 5.80761814 -3.93545933 4.67968845 -3.62999058 3.51757908 C-2.61393903 0.16897908 -2.61393903 0.16897908 0 0 Z " fill="#020000" transform="translate(559.9034280776978,535.8769521713257)"/>
<path d="M0 0 C37.62 0 75.24 0 114 0 C111.75005569 11.24972154 111.75005569 11.24972154 110.30078125 16.625 C109.82378784 18.40366455 109.82378784 18.40366455 109.3371582 20.21826172 C108.82995239 22.09022217 108.82995239 22.09022217 108.3125 24 C107.9504831 25.34513901 107.58875348 26.69035537 107.22729492 28.03564453 C106.49573687 30.7563371 105.7623881 33.47653633 105.02734375 36.19628906 C104.14002153 39.48157429 103.25623597 42.76776588 102.375 46.0546875 C96.29187229 68.71433821 90.13328184 91.35403629 84 114 C46.38 114 8.76 114 -30 114 C-29.35802991 108.22226917 -28.76508118 103.45367315 -27.328125 97.97265625 C-27.16550674 97.34594025 -27.00288849 96.71922424 -26.83534241 96.07351685 C-26.31314951 94.068146 -25.78189215 92.06531785 -25.25 90.0625 C-24.88397063 88.66652423 -24.51833217 87.2704459 -24.15307617 85.87426758 C-21.70825379 76.55660784 -19.19142939 67.25989078 -16.56347656 57.9921875 C-15.59287937 54.56061339 -14.64112231 51.12382195 -13.6875 47.6875 C-13.49019287 46.97883789 -13.29288574 46.27017578 -13.08959961 45.54003906 C-11.71793055 40.60817146 -10.36191576 35.67216565 -9.01171875 30.734375 C-8.47697608 28.78295497 -7.94198557 26.83160307 -7.40689087 24.88027954 C-6.88757052 22.98341495 -6.37087653 21.08583194 -5.85424805 19.18823242 C-5.52851807 18.00076416 -5.20278809 16.8132959 -4.8671875 15.58984375 C-4.57956543 14.53659912 -4.29194336 13.48335449 -3.99560547 12.39819336 C-2.77478762 8.23130676 -1.37307466 4.11922398 0 0 Z " fill="#020000" transform="translate(881,281)"/>
<path d="M0 0 C37.62 0 75.24 0 114 0 C113.36617323 5.0706142 112.83428492 9.13493184 111.46875 13.89453125 C111.15719971 14.99764648 110.84564941 16.10076172 110.5246582 17.23730469 C110.01745239 19.00702637 110.01745239 19.00702637 109.5 20.8125 C108.77196402 23.39640225 108.0458899 25.98073073 107.32421875 28.56640625 C107.04133247 29.57923172 107.04133247 29.57923172 106.75273132 30.61251831 C104.08850124 40.2100895 101.6667011 49.87207249 99.234375 59.53051758 C97.24807329 67.37960385 95.10781865 75.16084799 92.79188538 82.91926575 C90.96492377 89.05585716 89.32379875 95.23114849 87.75 101.4375 C87.24682733 103.41588344 86.74172173 105.39377661 86.234375 107.37109375 C86.02006836 108.21599365 85.80576172 109.06089355 85.58496094 109.93139648 C85 112 85 112 84 114 C46.38 114 8.76 114 -30 114 C-29.36259189 109.5381432 -28.75646392 105.69742219 -27.58203125 101.4375 C-27.30020996 100.40496094 -27.01838867 99.37242187 -26.72802734 98.30859375 C-26.42590332 97.21675781 -26.1237793 96.12492187 -25.8125 95 C-25.17497119 92.66688787 -24.53826833 90.3335499 -23.90234375 88 C-23.58249512 86.82824219 -23.26264648 85.65648437 -22.93310547 84.44921875 C-21.54259388 79.30920101 -20.20715921 74.15539051 -18.875 69 C-17.00635455 61.78601782 -15.06682996 54.59867121 -13.0390625 47.42797852 C-11.63319192 42.40454935 -10.31009264 37.36175515 -9.015625 32.30859375 C-8.75215775 31.28090378 -8.75215775 31.28090378 -8.48336792 30.23245239 C-7.60172728 26.78907483 -6.72489614 23.3445487 -5.85400391 19.8984375 C-5.52835449 18.62097656 -5.20270508 17.34351563 -4.8671875 16.02734375 C-4.57956543 14.89031006 -4.29194336 13.75327637 -3.99560547 12.58178711 C-2.81715354 8.34219214 -1.3915069 4.17452069 0 0 Z " fill="#020000" transform="translate(594,395)"/>
<path d="M0 0 C37.62 0 75.24 0 114 0 C111.75368019 13.47791887 111.75368019 13.47791887 110.37109375 18.06640625 C110.06276611 19.11135254 109.75443848 20.15629883 109.43676758 21.23291016 C109.10700928 22.3316748 108.77725098 23.43043945 108.4375 24.5625 C105.17203343 35.69797592 102.17079363 46.87874508 99.3125 58.125 C98.55262614 61.10951348 97.79222136 64.09389116 97.03125 67.078125 C96.85206024 67.78097122 96.67287048 68.48381744 96.48825073 69.20796204 C93.50689393 80.87290514 90.1636324 92.43248647 86.85546875 104.0078125 C86.44186096 105.45522827 86.44186096 105.45522827 86.01989746 106.93188477 C85.34663632 109.28793404 84.67333637 111.64397222 84 114 C69.85731349 114.09344088 55.71467484 114.16371194 41.57174301 114.20724869 C35.00491394 114.22814196 28.43829192 114.25649195 21.87158203 114.30175781 C15.5368165 114.34515259 9.20225039 114.36912399 2.86734772 114.37950897 C0.44795847 114.38691172 -1.97141961 114.40136716 -4.39072418 114.42292023 C-7.77407092 114.45186866 -11.15658883 114.45595947 -14.54003906 114.45410156 C-15.54488846 114.46848267 -16.54973785 114.48286377 -17.58503723 114.49768066 C-24.36502227 114.45727405 -24.36502227 114.45727405 -27.63723755 112.10081482 C-29.69984635 108.92112702 -29.11035979 106.97658741 -28.52441406 103.37353516 C-27.71624789 99.71571787 -26.60200077 96.22375486 -25.375 92.6875 C-22.65944201 84.50670471 -20.48161116 76.24713364 -18.4375 67.875 C-16.40415955 59.54782851 -14.28537836 51.29428595 -11.77319336 43.09936523 C-9.87348614 36.80477795 -8.3816072 30.42475074 -6.96240234 24.00610352 C-5.09435112 15.78520207 -2.54777802 8.15288966 0 0 Z " fill="#020000" transform="translate(452,395)"/>
</svg>
